<svg width="45" height="54" viewBox="0 0 45 54" fill="none" xmlns="http://www.w3.org/2000/svg">
<path d="M44.3641 16.7185C44.3809 15.9446 44.197 15.1798 43.831 14.5005C43.4516 13.844 42.9046 13.3033 42.2477 12.9356C36.4244 9.52536 30.599 6.11993 24.7716 2.71925C23.2024 1.79903 21.6815 1.83168 20.1224 2.76618C17.8049 4.14754 6.19905 10.8992 2.74084 12.9335C1.31652 13.7701 0.624475 15.0515 0.624475 16.7164V37.2837C0.609776 38.0412 0.786372 38.79 1.13747 39.4588C1.51704 40.1353 2.07415 40.6919 2.74688 41.0666C6.20509 43.107 17.8129 49.8505 20.1305 51.238C21.6896 52.1725 23.2105 52.2052 24.7816 51.2849C30.6037 47.8734 36.429 44.4666 42.2578 41.0646C42.9305 40.6899 43.4876 40.1333 43.8672 39.4567C44.2183 38.7879 44.3949 38.0392 44.3802 37.2817V16.7185H44.3641Z" fill="#0F0F0F"/>
<path d="M44.3681 37.2837C44.3833 38.0413 44.2066 38.7901 43.8551 39.4588C43.7688 39.618 43.6713 39.7707 43.5634 39.9158L22.4943 27.0001L42.2477 12.9355C42.904 13.3035 43.4503 13.8441 43.829 14.5005C44.1966 15.1792 44.3812 15.9443 44.3641 16.7185C44.3681 23.5742 44.3681 37.2837 44.3681 37.2837Z" fill="#212121"/>
<path d="M43.829 14.5005L1.13144 39.4587C0.781905 38.7902 0.606698 38.0422 0.622468 37.2857V16.7164C0.622468 15.0514 1.31652 13.77 2.73884 12.9334C6.19906 10.8992 17.8049 4.14747 20.1244 2.76203C21.6795 1.82753 23.2024 1.79488 24.7716 2.7151C30.5936 6.12666 36.419 9.53345 42.2477 12.9355C42.904 13.3034 43.4503 13.8441 43.829 14.5005Z" fill="#333333"/>
<path d="M23.3392 35.3085C21.9015 35.3105 20.4896 34.921 19.251 34.1805C18.0124 33.4401 16.9926 32.3759 16.2981 31.0991C16.227 30.9713 16.1599 30.8407 16.0969 30.7074C15.2399 28.9123 15.0618 26.8609 15.5961 24.9415C16.1304 23.0222 17.3401 21.3682 18.9961 20.2928C20.6522 19.2174 22.6395 18.7952 24.5819 19.1063C26.5242 19.4173 28.2867 20.44 29.5354 21.9806C29.642 22.1112 29.7366 22.2479 29.8432 22.3887C29.8915 22.456 29.9398 22.5233 29.984 22.5927L37.0393 18.4711C36.8676 18.1909 36.6879 17.9188 36.5001 17.6549C36.4016 17.5141 36.299 17.3795 36.2024 17.2468C33.7502 14.0158 30.1932 11.8341 26.2331 11.1319C22.273 10.4297 18.1972 11.2582 14.8097 13.4538C11.4221 15.6493 8.96869 19.0527 7.93335 22.9926C6.89801 26.9325 7.35589 31.1228 9.21669 34.7372C9.28509 34.8678 9.3555 34.9963 9.41786 35.1249C10.7845 37.5704 12.7513 39.616 15.1273 41.0632C17.5034 42.5104 20.208 43.31 22.9785 43.3843C25.7491 43.4586 28.4916 42.8052 30.9398 41.4874C33.3879 40.1697 35.4586 38.2323 36.9508 35.8635L30.0524 31.6337C29.3221 32.7633 28.326 33.6906 27.154 34.3322C25.982 34.9737 24.671 35.3092 23.3392 35.3085Z" fill="white"/>
</svg>
