<svg width="44" height="50" viewBox="0 0 44 50" fill="none" xmlns="http://www.w3.org/2000/svg">
<g clip-path="url(#clip0_141_91)">
<path d="M43.8044 14.8013C43.8041 13.9689 43.6278 13.2333 43.2714 12.6022C42.9212 11.9812 42.3968 11.4609 41.6934 11.0495C35.8873 7.66814 30.0755 4.29715 24.2713 0.912379C22.7065 -4.00914e-05 21.1893 0.0333958 19.6361 0.958913C17.3251 2.3353 5.7546 9.03056 2.30675 11.0476C0.886832 11.878 0.195898 13.1485 0.195557 14.7998C0.193338 21.5998 0.195557 28.3999 0.193338 35.2C0.193338 36.0141 0.362446 36.7356 0.70322 37.3573C1.05355 37.9968 1.58527 38.5315 2.30488 38.9522C5.75289 40.9692 17.3249 47.6639 19.6354 49.0408C21.1893 49.9669 22.7065 50 24.2718 49.0874C30.0762 45.7024 35.8883 42.3314 41.6953 38.9501C42.4149 38.5296 42.9466 37.9946 43.2969 37.3555C43.6372 36.7337 43.8067 36.0124 43.8067 35.1981C43.8067 35.1981 43.8067 21.6016 43.8044 14.8013Z" fill="#333333"/>
<path d="M22.0667 24.9336L0.70322 37.3572C1.05355 37.9968 1.58527 38.5315 2.30488 38.9522C5.75289 40.9692 17.3249 47.6639 19.6354 49.0408C21.1893 49.9669 22.7065 50 24.2718 49.0874C30.0762 45.7024 35.8883 42.3314 41.6953 38.9501C42.4149 38.5296 42.9466 37.9946 43.297 37.3555L22.0667 24.9336Z" fill="#0F0F0F"/>
<path d="M43.8044 14.8014C43.8041 13.9689 43.6278 13.2333 43.2714 12.6022L22.0667 24.9338L43.297 37.3555C43.6372 36.7337 43.8063 36.0124 43.8067 35.1981C43.8067 35.1981 43.8067 21.6016 43.8044 14.8014Z" fill="#212121"/>
<path d="M34.6448 20.2893V22.6115H36.9441V20.2893H38.0937V22.6115H40.3929V23.7727H38.0937V26.0947H40.3929V27.2558H38.0937V29.5781H36.9441V27.2558H34.6448V29.5781H33.4952V27.2558H31.1961V26.0947H33.4952V23.7727H31.1961V22.6115H33.4952V20.2893H34.6448ZM36.9441 23.7725H34.6448V26.0947H36.9441V23.7725Z" fill="white"/>
<path d="M22.1136 8.62676C28.1107 8.62676 33.3466 11.9162 36.1511 16.8058L36.1238 16.7587L29.0677 20.862C27.6776 18.4848 25.1293 16.8804 22.2056 16.8473L22.1135 16.8468C17.6554 16.8468 14.0412 20.4972 14.0412 24.9998C14.0397 26.419 14.4068 27.8137 15.1058 29.0448C16.4973 31.4982 19.1131 33.153 22.1136 33.153C25.1328 33.153 27.7635 31.4772 29.1477 28.9976L29.1141 29.0571L36.1595 33.1793C33.3857 38.0275 28.2215 41.3068 22.2942 41.3722L22.1136 41.3732C16.0976 41.3732 10.8469 38.0634 8.04941 33.148C6.68375 30.7483 5.90238 27.9665 5.90238 24.9998C5.90238 15.9573 13.1602 8.62659 22.1135 8.62659L22.1136 8.62676Z" fill="white"/>
</g>
<defs>
<clipPath id="clip0_141_91">
<rect width="44" height="50" fill="white"/>
</clipPath>
</defs>
</svg>
