<svg width="44" height="50" viewBox="0 0 44 50" fill="none" xmlns="http://www.w3.org/2000/svg">
<g clip-path="url(#clip0_141_62)">
<path d="M28.4024 49.9137H29.0052L38.8448 44.9597L39.0086 44.7266V5.18408L38.8448 4.94983L29.0052 0H28.395L28.4024 49.9137Z" fill="#404040"/>
<path d="M15.5975 49.9137H14.9862L5.15499 44.9597L4.95549 44.6142L4.85427 5.38547L5.15499 4.94983L14.9862 0H15.605L15.5975 49.9137Z" fill="#212121"/>
<path d="M15.0036 0H28.9957V49.9137H15.0036V0Z" fill="#333333"/>
<path d="M43.9955 23.8355L43.663 23.7612L38.9154 23.3156L38.8449 23.3509L28.9965 22.9543H15.0037L5.15509 23.3509V15.7896L5.14478 15.7952L5.15509 15.773L15.0037 13.4754H28.9965L38.8449 15.773L42.4654 17.7106V16.4649L43.9955 16.2964L43.837 15.9853L38.9926 12.4976L38.8449 12.5459L28.9965 9.47336H15.0037L5.15509 12.5459V4.94983L0.00474358 11.0247V16.3303L0.0446102 16.3012L1.5348 16.4649V17.7362L0.00474358 18.5606V23.8396L0.0446102 23.8355L1.5348 23.8576V26.0734L0.249098 26.0927L0.00474358 26.0692V31.3504L1.5348 32.1787V33.4647L0.0688394 33.6277L0.00474358 33.5792V38.8839L5.15509 44.9597V37.3644L15.0037 40.4369H28.9965L38.874 37.3554L39.0053 37.4133L43.786 33.977L43.9955 33.6346L42.4654 33.4647V32.2045L42.2649 32.1239L38.9926 33.8998L38.874 34.149L28.9965 36.4332V36.436H15.0037V36.4332L5.15509 34.1393V26.5503L15.0037 26.9455V26.9552H28.9965L38.8449 26.5503L39.0692 26.6542L43.6709 26.2552L43.9955 26.0955L42.4654 26.0734V23.8576L43.9955 23.8355Z" fill="#0F0F0F"/>
<path d="M38.8448 37.3644V44.9597L43.9954 38.8839V33.6138L38.8746 37.3554L38.8448 37.3644ZM38.8448 34.1559L38.8746 34.149L43.9954 31.376V26.0734L38.8448 26.5503V34.1559ZM38.8746 15.7799L38.8448 15.773V23.3509L43.9954 23.8355V18.5355L38.8746 15.7799ZM38.8746 12.5756L43.9954 16.2964V11.0261L38.8448 4.94983V12.5459L38.8746 12.5562V12.5756Z" fill="#333333"/>
</g>
<defs>
<clipPath id="clip0_141_62">
<rect width="44" height="50" fill="white"/>
</clipPath>
</defs>
</svg>
