<svg width="37" height="50" viewBox="0 0 37 50" fill="none" xmlns="http://www.w3.org/2000/svg">
<g clip-path="url(#clip0_141_98)">
<path d="M11.9298 38.6522C11.9298 38.6522 10.0225 39.7613 13.2871 40.1366C17.2422 40.5877 19.2634 40.5231 23.622 39.6981C23.622 39.6981 24.7679 40.4166 26.3681 41.039C16.5977 45.2265 4.25549 40.7964 11.9298 38.6522ZM10.7358 33.1877C10.7358 33.1877 8.59668 34.7713 11.8637 35.1091C16.0886 35.545 19.425 35.5807 25.1984 34.469C25.1984 34.469 25.997 35.2785 27.2526 35.7213C15.4395 39.1756 2.28179 35.9937 10.7358 33.1877Z" fill="#333333"/>
<path d="M20.8009 23.9183C23.2084 26.69 20.1684 29.1842 20.1684 29.1842C20.1684 29.1842 26.2812 26.0286 23.4738 22.0769C20.8519 18.3919 18.841 16.5607 29.7264 10.2477C29.7264 10.2477 12.64 14.5152 20.8009 23.9183Z" fill="#767676"/>
<path d="M33.7231 42.6939C33.7231 42.6939 35.1345 43.8568 32.1686 44.7565C26.529 46.465 8.69581 46.9809 3.74176 44.8246C1.96098 44.05 5.30058 42.9749 6.35101 42.7491C7.44653 42.5116 8.07269 42.5559 8.07269 42.5559C6.0922 41.1607 -4.72832 45.2954 2.57645 46.4793C22.4974 49.71 38.8903 45.0247 33.7231 42.6939ZM12.8468 27.526C12.8468 27.526 3.77587 29.6806 9.63468 30.4629C12.1084 30.7941 17.0397 30.7192 21.6332 30.3342C25.3873 30.0178 29.1568 29.3444 29.1568 29.3444C29.1568 29.3444 27.8331 29.9113 26.8754 30.5652C17.6639 32.9879 -0.131214 31.8608 4.99176 29.3827C9.32428 27.2884 12.8468 27.526 12.8468 27.526ZM29.1194 36.6217C38.4835 31.7558 34.1539 27.0798 31.1319 27.7098C30.3912 27.8639 30.061 27.9974 30.061 27.9974C30.061 27.9974 30.336 27.5668 30.8611 27.3803C36.8395 25.2785 41.4373 33.5793 28.9312 36.8669C28.9312 36.867 29.0762 36.7376 29.1194 36.6217Z" fill="#333333"/>
<path d="M23.4738 0.0536113C23.4738 0.0536113 28.6598 5.24147 18.5552 13.2185C10.4525 19.6176 16.7075 23.2662 18.5519 27.4348C13.8221 23.1675 10.351 19.4108 12.6798 15.9146C16.0975 10.7821 25.5662 8.29393 23.4738 0.0536113Z" fill="#767676"/>
<path d="M13.7671 49.8071C22.7553 50.3826 36.5578 49.4879 36.8847 45.2349C36.8847 45.2349 36.2564 46.8473 29.4564 48.1276C21.7847 49.5713 12.3228 49.4028 6.71084 48.4775C6.71098 48.4775 7.85954 49.4284 13.7671 49.8071Z" fill="#333333"/>
</g>
<defs>
<clipPath id="clip0_141_98">
<rect width="37" height="50" fill="white"/>
</clipPath>
</defs>
</svg>
