<svg width="51" height="51" viewBox="0 0 51 51" fill="none" xmlns="http://www.w3.org/2000/svg">
<g clip-path="url(#clip0_141_88)">
<path d="M23.8317 0.0398346C23.7221 0.0497946 23.3735 0.0846544 23.0598 0.109554C15.8239 0.761932 9.04614 4.66624 4.75339 10.6671C2.363 14.0037 0.834147 17.7885 0.256469 21.7974C0.0522894 23.1968 0.0273895 23.6101 0.0273895 25.5075C0.0273895 27.4048 0.0522894 27.8182 0.256469 29.2176C1.6409 38.7841 8.44854 46.8218 17.6814 49.7998C19.3348 50.3327 21.0778 50.6962 23.0598 50.9153C23.8317 51 27.1683 51 27.9402 50.9153C31.3614 50.5369 34.2598 49.6903 37.1183 48.2311C37.5565 48.007 37.6412 47.9473 37.5814 47.8975C37.5416 47.8676 35.6741 45.3627 33.4331 42.3348L29.3595 36.8319L24.255 29.2773C21.4463 25.124 19.1356 21.7277 19.1157 21.7277C19.0957 21.7227 19.0758 25.0792 19.0659 29.1777C19.0509 36.3539 19.0459 36.6427 18.9563 36.812C18.8268 37.056 18.7272 37.1556 18.5181 37.2652C18.3587 37.3449 18.2193 37.3598 17.4673 37.3598H16.6058L16.3767 37.2154C16.2273 37.1208 16.1177 36.9963 16.043 36.8519L15.9384 36.6278L15.9484 26.6429L15.9633 16.6531L16.1177 16.4588C16.1974 16.3543 16.3667 16.2198 16.4862 16.1551C16.6904 16.0555 16.7701 16.0455 17.6316 16.0455C18.6475 16.0455 18.8169 16.0853 19.0808 16.3742C19.1555 16.4539 21.9194 20.6171 25.2261 25.632C28.5328 30.6468 33.0546 37.4943 35.2757 40.8558L39.3095 46.9662L39.5137 46.8317C41.3214 45.6565 43.2337 43.9832 44.7476 42.2402C47.9697 38.5401 50.0463 34.0282 50.7435 29.2176C50.9477 27.8182 50.9726 27.4048 50.9726 25.5075C50.9726 23.6101 50.9477 23.1968 50.7435 21.7974C49.3591 12.2308 42.5515 4.19314 33.3186 1.21511C31.6901 0.687232 29.9571 0.323694 28.0149 0.104574C27.5368 0.0547745 24.245 -5.25544e-06 23.8317 0.0398346ZM34.2598 15.4479C34.4988 15.5674 34.6931 15.7965 34.7628 16.0355C34.8026 16.165 34.8126 18.9339 34.8026 25.1738L34.7877 34.1278L33.209 31.7075L31.6254 29.2873V22.7784C31.6254 18.5703 31.6453 16.2049 31.6752 16.0903C31.7549 15.8114 31.9292 15.5923 32.1682 15.4628C32.3724 15.3583 32.4471 15.3483 33.2289 15.3483C33.966 15.3483 34.0955 15.3583 34.2598 15.4479Z" fill="#0F0F0F"/>
<path d="M39.0605 47.0758C38.8862 47.1853 38.8314 47.26 38.9858 47.1754C39.0953 47.1106 39.2746 46.9762 39.2447 46.9712C39.2298 46.9712 39.1451 47.021 39.0605 47.0758ZM38.7169 47.2999C38.6272 47.3696 38.6272 47.3746 38.7368 47.3198C38.7966 47.2899 38.8464 47.2551 38.8464 47.2451C38.8464 47.2053 38.8215 47.2152 38.7169 47.2999ZM38.4679 47.4493C38.3782 47.519 38.3782 47.524 38.4878 47.4692C38.5476 47.4393 38.5974 47.4044 38.5974 47.3945C38.5974 47.3547 38.5725 47.3646 38.4679 47.4493ZM38.2189 47.5987C38.1292 47.6684 38.1292 47.6734 38.2388 47.6186C38.2986 47.5887 38.3484 47.5538 38.3484 47.5439C38.3484 47.504 38.3235 47.514 38.2189 47.5987ZM37.8404 47.7979C37.6512 47.8975 37.6611 47.9373 37.8504 47.8427C37.935 47.7979 37.9998 47.753 37.9998 47.7431C37.9998 47.7082 37.9948 47.7132 37.8404 47.7979Z" fill="#0F0F0F"/>
</g>
<defs>
<clipPath id="clip0_141_88">
<rect width="51" height="51" fill="white"/>
</clipPath>
</defs>
</svg>
