<svg width="49" height="50" viewBox="0 0 49 50" fill="none" xmlns="http://www.w3.org/2000/svg">
<g clip-path="url(#clip0_141_51)">
<path d="M48.8101 29.9375C48.5163 29.0571 47.7467 28.4439 46.7514 28.2967C46.282 28.2274 45.7446 28.257 45.1085 28.3867C43.9999 28.613 43.1774 28.6992 42.5772 28.7158C44.8428 24.9312 46.6851 20.6153 47.7457 16.5526C49.4607 9.98342 48.5443 6.99073 47.4733 5.63707C44.6392 2.0541 40.5042 0.129291 35.5158 0.0703957C32.8547 0.0382019 30.5186 0.558036 29.2999 0.931863C28.1652 0.733776 26.9452 0.623181 25.6651 0.602729C23.2654 0.564854 21.1452 1.08242 19.3336 2.14614C18.3306 1.81056 16.7209 1.3375 14.8619 1.03564C10.4898 0.325484 6.96604 0.878838 4.38857 2.68036C1.2675 4.86158 -0.179343 8.65136 0.0882426 13.9444C0.173227 15.6249 1.12337 20.738 2.6194 25.5872C3.4792 28.3744 4.39603 30.6889 5.34445 32.4672C6.68946 34.9887 8.12864 36.4736 9.7443 37.0069C10.6498 37.3053 12.2952 37.5144 14.0257 36.0884C14.245 36.3512 14.5377 36.6124 14.9261 36.855C15.4193 37.1627 16.0224 37.4142 16.6248 37.5632C18.7955 38.1001 20.8288 37.9658 22.5635 37.2133C22.5743 37.5185 22.5825 37.8102 22.5894 38.0621C22.6009 38.4705 22.6124 38.8711 22.6275 39.2456C22.7303 41.7783 22.9044 43.7477 23.4205 45.1256C23.4488 45.2013 23.4869 45.3168 23.5271 45.4393C23.7845 46.2192 24.215 47.5247 25.3102 48.5472C26.4443 49.6064 27.8161 49.9311 29.0725 49.9311C29.7026 49.9311 30.3038 49.8493 30.8311 49.7376C32.7108 49.339 34.8455 48.7318 36.3898 46.5563C37.8498 44.4997 38.5596 41.4021 38.688 36.5213C38.7046 36.3832 38.72 36.2514 38.7347 36.1259L38.7653 35.868L39.1093 35.8979L39.1979 35.9037C41.1123 35.9901 43.4532 35.5884 44.8909 34.9277C46.0269 34.4062 49.6672 32.5047 48.8101 29.9375Z" fill="#0F0F0F"/>
<path d="M45.5367 30.4367C39.8443 31.5985 39.4528 29.6917 39.4528 29.6917C45.463 20.8681 47.9756 9.66792 45.8075 6.92672C39.8923 -0.550752 29.653 2.98564 29.4821 3.07729L29.4272 3.08714C28.3025 2.8561 27.044 2.71862 25.6293 2.6957C23.0537 2.65404 21.0999 3.36382 19.6172 4.47621C19.6172 4.47621 1.35132 -2.96888 2.20097 13.8397C2.38166 17.4154 7.38119 40.8962 13.3443 33.804C15.5238 31.2105 17.6299 29.0177 17.6299 29.0177C18.6757 29.7051 19.9279 30.0558 21.2405 29.9299L21.3426 29.8443C21.3108 30.1662 21.3253 30.4812 21.3833 30.8541C19.8471 32.5522 20.2986 32.8503 17.2277 33.4758C14.1202 34.1094 15.9457 35.2373 17.1376 35.5324C18.5825 35.8897 21.9252 36.3961 24.1838 33.2678L24.0938 33.6248C24.6956 34.1018 25.1182 36.7273 25.0474 39.1076C24.9766 41.4877 24.9293 43.1218 25.4034 44.3982C25.8779 45.6745 26.3505 48.5464 30.3876 47.6906C33.7608 46.9754 35.5089 45.122 35.7522 42.0302C35.9247 39.8323 36.3153 40.1573 36.3398 38.1922L36.6531 37.2619C37.0143 34.2825 36.7106 33.3212 38.7887 33.7684L39.294 33.8123C40.8233 33.881 42.8254 33.5688 44.0005 33.0285C46.5305 31.8668 48.0311 29.9271 45.5363 30.4367H45.5367Z" fill="#333333"/>
<path d="M20.6864 15.4388C20.1735 15.3681 19.7089 15.4335 19.4739 15.6096C19.3418 15.7086 19.3008 15.8234 19.2897 15.9024C19.2603 16.1116 19.4084 16.343 19.4995 16.4623C19.7571 16.8002 20.1335 17.0324 20.5059 17.0835C20.5599 17.0911 20.6137 17.0945 20.6671 17.0945C21.2882 17.0945 21.853 16.6159 21.9028 16.2627C21.965 15.8204 21.316 15.5253 20.6864 15.4388ZM37.6802 15.4528C37.6312 15.106 37.0076 15.0072 36.4158 15.0886C35.8247 15.1701 35.2517 15.434 35.2995 15.7815C35.3378 16.0518 35.8311 16.5131 36.4148 16.5131C36.4642 16.5131 36.514 16.5099 36.5641 16.5029C36.9539 16.4495 37.2398 16.2046 37.3757 16.0635C37.5824 15.8484 37.7022 15.6086 37.6802 15.4528Z" fill="white"/>
<path d="M47.4309 30.3047C47.2138 29.6554 46.5152 29.4465 45.3545 29.6836C41.9082 30.3873 40.674 29.8998 40.2688 29.6046C42.9476 25.5671 45.1512 20.6866 46.34 16.133C46.9032 13.9761 47.2142 11.9728 47.2396 10.3401C47.2678 8.548 46.9592 7.23109 46.323 6.42662C43.7578 3.18358 39.9928 1.44398 35.4354 1.39625C32.3023 1.36141 29.6552 2.1547 29.142 2.37779C28.0613 2.1119 26.8832 1.94866 25.6006 1.92783C23.2486 1.89014 21.2155 2.44729 19.5322 3.58297C18.8011 3.31368 16.9115 2.67188 14.6007 2.30355C10.6056 1.66725 7.43097 2.1494 5.16548 3.73731C2.46225 5.63219 1.21428 9.01935 1.45603 13.8045C1.53738 15.4144 2.46455 20.3669 3.92766 25.1098C5.85359 31.3523 7.94719 34.8863 10.1499 35.6133C10.4077 35.6983 10.705 35.7578 11.0329 35.7578C11.8364 35.7578 12.8215 35.3995 13.8465 34.1803C15.0967 32.6964 16.3899 31.2486 17.7246 29.8387C18.5905 30.2985 19.5418 30.5553 20.5147 30.581C20.5166 30.6062 20.5191 30.6314 20.5214 30.6564C20.354 30.854 20.19 31.0544 20.0295 31.2577C19.3554 32.1044 19.2151 32.2807 17.0451 32.7227C16.4278 32.8488 14.7884 33.183 14.7643 34.32C14.7383 35.5623 16.7023 36.0841 16.9261 36.1394C17.7058 36.3325 18.4571 36.4278 19.1736 36.4278C20.9159 36.4278 22.4493 35.8612 23.6747 34.7649C23.637 39.1936 23.8236 43.5576 24.361 44.8872C24.8013 45.9757 25.8766 48.6358 29.2733 48.6357C29.7717 48.6357 30.3203 48.5783 30.9238 48.4503C34.4688 47.6984 36.0083 46.1482 36.6038 42.7306C36.9225 40.904 37.4693 36.5425 37.7266 34.203C38.2694 34.3706 38.9682 34.4473 39.7237 34.4471C41.2993 34.4471 43.1175 34.1159 44.2577 33.5923C45.5386 33.0037 47.85 31.5595 47.4309 30.3047ZM38.9887 14.4957C38.977 15.1864 38.8809 15.8134 38.7791 16.4679C38.6694 17.1718 38.5561 17.8995 38.5276 18.783C38.4995 19.6427 38.608 20.5366 38.7129 21.4011C38.925 23.1471 39.1426 24.9447 38.3002 26.7183C38.1603 26.473 38.0356 26.2195 37.927 25.9591C37.8223 25.708 37.5949 25.3047 37.28 24.7464C36.0552 22.5731 33.187 17.4838 34.6553 15.4072C35.0926 14.789 36.2026 14.1535 38.9887 14.4957ZM35.6115 2.79479C39.695 2.88398 42.9252 4.39539 45.2121 7.28676C46.9661 9.50453 45.0346 19.5958 39.4431 28.3015C39.3869 28.2308 39.3303 28.1603 39.2735 28.09L39.2027 28.0025C40.6476 25.6416 40.3651 23.3056 40.1136 21.2346C40.0102 20.3847 39.9126 19.5819 39.9375 18.8278C39.9631 18.0287 40.0699 17.3431 40.1733 16.6803C40.3002 15.8636 40.4294 15.0184 40.3938 14.0221C40.4204 13.9175 40.4311 13.7941 40.4172 13.6475C40.3262 12.6921 39.2237 9.83272 36.9766 7.24472C35.7474 5.82914 33.9549 4.24502 31.5074 3.17657C32.5601 2.96068 33.9997 2.75938 35.6115 2.79479ZM12.7618 33.288C11.6325 34.6314 10.8527 34.3738 10.5963 34.2894C8.92528 33.7379 6.98633 30.2436 5.27688 24.7024C3.7977 19.9078 2.9333 15.0866 2.86478 13.7346C2.64887 9.45889 3.69644 6.47908 5.97858 4.87772C9.69263 2.27192 15.7989 3.83162 18.2525 4.62264C18.2173 4.6571 18.1805 4.6893 18.1457 4.72433C14.1193 8.74741 14.2148 15.621 14.2247 16.0412C14.2244 16.2033 14.2381 16.4328 14.2569 16.7485C14.3262 17.9046 14.4552 20.0563 14.1107 22.493C13.7906 24.7574 14.4962 26.9736 16.046 28.5736C16.205 28.7375 16.3722 28.8935 16.5469 29.041C15.8571 29.772 14.3578 31.3885 12.7618 33.288ZM17.0644 27.608C15.8153 26.3184 15.248 24.5246 15.5077 22.6862C15.8714 20.1122 15.7372 17.8704 15.6651 16.6659C15.6549 16.4974 15.6459 16.3497 15.6408 16.2332C16.229 15.7172 18.9548 14.2722 20.8987 14.7129C21.7857 14.9138 22.3262 15.5115 22.5509 16.5394C23.7139 21.8614 22.7048 24.0796 21.894 25.8622C21.7269 26.2294 21.569 26.5765 21.4343 26.9356L21.3297 27.2132C21.0652 27.915 20.8191 28.5676 20.6665 29.1872C19.3385 29.1834 18.0467 28.6221 17.0644 27.6078V27.608ZM17.2683 34.7853C16.8805 34.6895 16.5318 34.5231 16.3271 34.385C16.4981 34.3055 16.8022 34.1971 17.3297 34.0896C19.8825 33.5697 20.2768 33.2027 21.1378 32.1212C21.3351 31.8731 21.5589 31.5921 21.8687 31.2497L21.8691 31.2493C22.3306 30.738 22.5417 30.8247 22.9245 30.9819C23.2348 31.1088 23.537 31.4936 23.6595 31.9171C23.7175 32.117 23.7826 32.4966 23.5696 32.792C21.7711 35.2834 19.1504 35.2514 17.2683 34.7853ZM30.6283 47.0856C27.5053 47.7477 26.3995 46.1711 25.6708 44.3688C25.2006 43.2053 24.9693 37.9585 25.1334 32.1642C25.1355 32.0871 25.1244 32.0127 25.1029 31.9426C25.0838 31.8043 25.0546 31.6674 25.0157 31.5332C24.7718 30.6901 24.1775 29.9849 23.4645 29.6925C23.1812 29.5764 22.6614 29.3633 22.0366 29.5215C22.1698 28.9783 22.4009 28.365 22.6514 27.7008L22.7565 27.4215C22.8748 27.1066 23.0233 26.7803 23.1803 26.4348C24.0288 24.5699 25.1908 22.0154 23.9296 16.2446C23.4572 14.0831 21.8797 13.0275 19.4882 13.2727C18.0546 13.4195 16.7429 13.9918 16.0887 14.32C15.948 14.3904 15.8193 14.4586 15.6991 14.5249C15.8817 12.3471 16.5716 8.27701 19.1521 5.70188C20.777 4.08083 22.9408 3.28016 25.5772 3.32333C30.772 3.40742 34.1032 6.04503 35.9832 8.24311C37.6033 10.137 38.4805 12.045 38.8306 13.0741C36.1978 12.8091 34.4072 13.3233 33.4995 14.6072C31.5248 17.4001 34.5798 22.8208 36.0481 25.426C36.3174 25.9035 36.5498 26.3161 36.6229 26.4915C37.101 27.6379 37.7201 28.4034 38.172 28.9621C38.3105 29.1333 38.4449 29.2993 38.5471 29.4444C37.7497 29.6718 36.3174 30.1973 36.448 32.8242C36.3427 34.1422 35.5941 40.3132 35.2138 42.4935C34.7117 45.3739 33.6404 46.4467 30.6283 47.0858V47.0856ZM43.6638 32.3265C42.8484 32.7009 41.4839 32.9817 40.1877 33.0421C38.7559 33.1084 38.0271 32.8834 37.8556 32.745C37.7752 31.1081 38.3909 30.9371 39.0427 30.756C39.1451 30.7276 39.245 30.6998 39.3415 30.6664C39.4014 30.7147 39.467 30.7626 39.539 30.8096C40.6897 31.561 42.7422 31.6421 45.6399 31.0503L45.6716 31.044C45.2808 31.4056 44.612 31.8907 43.6638 32.3265Z" fill="white"/>
</g>
<defs>
<clipPath id="clip0_141_51">
<rect width="49" height="50" fill="white"/>
</clipPath>
</defs>
</svg>
