<svg width="49" height="50" viewBox="0 0 49 50" fill="none" xmlns="http://www.w3.org/2000/svg">
<g clip-path="url(#clip0_141_59)">
<path d="M24.2902 0.0141602C11.8822 0.0141602 12.6569 5.52691 12.6569 5.52691L12.6707 11.2383H24.5115V12.953H7.96769C7.96769 12.953 0.0277557 12.0304 0.0277557 24.8569C0.0277557 37.6838 6.95792 37.2289 6.95792 37.2289H11.0938V31.2767C11.0938 31.2767 10.8709 24.1767 17.9134 24.1767H29.6573C29.6573 24.1767 36.2554 24.2859 36.2554 17.6436V6.66083C36.2554 6.66083 37.2576 0.0141602 24.2902 0.0141602ZM17.7612 3.85494C18.041 3.85469 18.3181 3.91096 18.5767 4.02054C18.8352 4.13012 19.0702 4.29086 19.268 4.49357C19.4659 4.69627 19.6228 4.93695 19.7297 5.20184C19.8367 5.46673 19.8916 5.75063 19.8914 6.0373C19.8916 6.32396 19.8367 6.60786 19.7297 6.87275C19.6228 7.13765 19.4659 7.37833 19.268 7.58103C19.0702 7.78373 18.8352 7.94447 18.5767 8.05405C18.3181 8.16364 18.041 8.21991 17.7612 8.21965C17.4814 8.21991 17.2043 8.16364 16.9457 8.05405C16.6872 7.94447 16.4523 7.78373 16.2544 7.58103C16.0566 7.37833 15.8997 7.13765 15.7927 6.87275C15.6857 6.60786 15.6308 6.32396 15.6311 6.0373C15.6308 5.75063 15.6857 5.46673 15.7927 5.20184C15.8997 4.93695 16.0566 4.69627 16.2544 4.49357C16.4523 4.29086 16.6872 4.13012 16.9457 4.02054C17.2043 3.91096 17.4814 3.85469 17.7612 3.85494Z" fill="url(#paint0_linear_141_59)"/>
<path d="M24.6426 49.8286C37.0507 49.8286 36.2759 44.3159 36.2759 44.3159L36.2621 38.6047H24.4211V36.89H40.9649C40.9649 36.89 48.9049 37.8126 48.9049 24.9857C48.9049 12.159 41.9747 12.6139 41.9747 12.6139H37.8388V18.5659C37.8388 18.5659 38.0618 25.6659 31.0192 25.6659H19.2753C19.2753 25.6659 12.6772 25.5567 12.6772 32.1992V43.1822C12.6772 43.1822 11.6753 49.8286 24.6424 49.8286H24.6426ZM31.1716 45.9882C30.8918 45.9885 30.6147 45.9322 30.3561 45.8227C30.0976 45.7131 29.8626 45.5523 29.6648 45.3496C29.4669 45.1469 29.31 44.9062 29.2031 44.6413C29.0961 44.3765 29.0412 44.0926 29.0414 43.8059C29.0412 43.5192 29.0961 43.2353 29.203 42.9704C29.31 42.7055 29.4669 42.4648 29.6647 42.262C29.8626 42.0593 30.0975 41.8986 30.3561 41.789C30.6146 41.6794 30.8918 41.6231 31.1716 41.6233C31.4514 41.6231 31.7285 41.6794 31.9871 41.7889C32.2456 41.8985 32.4805 42.0593 32.6784 42.262C32.8763 42.4647 33.0332 42.7054 33.1401 42.9702C33.2471 43.2351 33.302 43.519 33.3017 43.8057C33.302 44.0924 33.2471 44.3763 33.1401 44.6412C33.0332 44.906 32.8763 45.1467 32.6784 45.3494C32.4805 45.5521 32.2456 45.7129 31.9871 45.8225C31.7285 45.932 31.4514 45.9885 31.1716 45.9882Z" fill="url(#paint1_linear_141_59)"/>
</g>
<defs>
<linearGradient id="paint0_linear_141_59" x1="469.735" y1="448.066" x2="2949.97" y2="2844.82" gradientUnits="userSpaceOnUse">
<stop stop-color="#0F0F0F"/>
<stop offset="1" stop-color="#366994"/>
</linearGradient>
<linearGradient id="paint1_linear_141_59" x1="705.966" y1="778.494" x2="3366.48" y2="3233.4" gradientUnits="userSpaceOnUse">
<stop stop-color="#404040"/>
<stop offset="1" stop-color="#FFC331"/>
</linearGradient>
<clipPath id="clip0_141_59">
<rect width="49" height="50" fill="white"/>
</clipPath>
</defs>
</svg>
