<svg width="50" height="38" viewBox="0 0 50 38" fill="none" xmlns="http://www.w3.org/2000/svg">
<g clip-path="url(#clip0_141_68)">
<path d="M29.1666 29.4011C18.75 29.4011 9.89727 24.1422 9.89727 17.8425C9.89727 11.5428 17.7084 6.30218 28.125 6.30218C41.2807 6.30218 47.3773 11.4032 47.3773 17.7029C47.3773 24.0027 40.6572 29.4011 29.1666 29.4011ZM25 0.00244141C11.4584 0.00244141 0 7.35207 0 16.8017C0 25.7264 11.3891 33.1355 24.9309 33.1355C38.4725 33.1355 50 26.2513 50 16.8017C50 7.35207 38.5416 0.00244141 25 0.00244141Z" fill="url(#paint0_linear_141_68)"/>
<path d="M20.6926 10.2058V37.9855H29.0213V27.1824C31.1035 27.1824 32.3438 26.7241 33.7061 29.2401C35.7883 32.8412 38.391 37.9855 38.391 37.9855H48.2813C48.2813 37.9855 42.0348 27.6968 41.5143 27.1824C40.5543 26.1534 39.432 26.1534 37.8705 25.639C40.9938 25.1246 43.9055 23.8184 44.9178 21.0197C45.8027 18.4476 45.6986 15.1757 43.8018 12.9816C42.159 11.2455 40.4732 10.2058 36.3088 10.2058H20.6926ZM29.0213 15.9913H34.4869C35.783 15.9913 36.8293 17.2775 36.8293 18.5634C36.8293 19.8495 35.7883 21.1357 34.4869 21.1357H29.0213V15.9913Z" fill="#0F0F0F"/>
</g>
<defs>
<linearGradient id="paint0_linear_141_68" x1="1898.65" y1="563.231" x2="3453.96" y2="3183.17" gradientUnits="userSpaceOnUse">
<stop stop-color="#9B9C9D"/>
<stop offset="1" stop-color="#545456"/>
</linearGradient>
<clipPath id="clip0_141_68">
<rect width="50" height="38" fill="white"/>
</clipPath>
</defs>
</svg>
