<svg width="44" height="50" viewBox="0 0 44 50" fill="none" xmlns="http://www.w3.org/2000/svg">
<path d="M44 25.0045C44 22.0977 40.3498 19.3429 34.7534 17.6345C36.0448 11.9461 35.4709 7.42032 32.9417 5.97136C32.3587 5.63149 31.6771 5.47049 30.9327 5.47049V7.46504C31.3453 7.46504 31.6771 7.54553 31.9552 7.69759C33.1749 8.39523 33.704 11.0516 33.2915 14.4683C33.1928 15.3091 33.0314 16.1945 32.8341 17.0979C31.0762 16.6686 29.1569 16.3376 27.139 16.123C25.9283 14.4683 24.6726 12.9657 23.4081 11.6509C26.3318 8.94082 29.0762 7.45609 30.9417 7.45609V5.46155C28.4753 5.46155 25.2466 7.2146 21.9821 10.2556C18.7175 7.23249 15.4888 5.49732 13.0224 5.49732V7.49187C14.8789 7.49187 17.6323 8.96765 20.5561 11.6598C19.3004 12.9746 18.0448 14.4683 16.852 16.123C14.8251 16.3376 12.9058 16.6686 11.148 17.1068C10.9417 16.2124 10.7892 15.3448 10.6816 14.513C10.2601 11.0964 10.7803 8.43995 11.991 7.73336C12.2601 7.57237 12.6099 7.50081 13.0224 7.50081V5.50627C12.2691 5.50627 11.5874 5.66726 10.9955 6.00714C8.47534 7.45609 7.91031 11.9729 9.21076 17.6435C3.63229 19.3608 0 22.1066 0 25.0045C0 27.9114 3.65022 30.6662 9.24664 32.3745C7.95516 38.063 8.52915 42.5887 11.0583 44.0377C11.6413 44.3775 12.3229 44.5385 13.0762 44.5385C15.5426 44.5385 18.7713 42.7855 22.0359 39.7445C25.3004 42.7676 28.5291 44.5028 30.9955 44.5028C31.7489 44.5028 32.4305 44.3418 33.0224 44.0019C35.5426 42.5529 36.1076 38.0361 34.8072 32.3655C40.3677 30.6572 44 27.9024 44 25.0045ZM32.3229 19.0388C31.991 20.1926 31.5785 21.3821 31.1121 22.5717C30.7444 21.8562 30.3587 21.1406 29.9372 20.4251C29.5247 19.7096 29.0852 19.0119 28.6457 18.3322C29.9193 18.52 31.148 18.7526 32.3229 19.0388ZM28.2152 28.5643C27.5157 29.7717 26.7982 30.9166 26.0538 31.981C24.7175 32.0972 23.3632 32.1598 22 32.1598C20.6457 32.1598 19.2915 32.0972 17.9641 31.9899C17.2197 30.9255 16.4933 29.7896 15.7937 28.5911C15.1121 27.4194 14.4933 26.2299 13.9283 25.0313C14.4843 23.8328 15.1121 22.6343 15.7848 21.4626C16.4843 20.2552 17.2018 19.1103 17.9462 18.046C19.2825 17.9297 20.6368 17.8671 22 17.8671C23.3543 17.8671 24.7085 17.9297 26.0359 18.037C26.7803 19.1014 27.5067 20.2373 28.2063 21.4358C28.8879 22.6075 29.5067 23.7971 30.0717 24.9956C29.5067 26.1941 28.8879 27.3926 28.2152 28.5643ZM31.1121 27.4015C31.5964 28.6001 32.009 29.7986 32.3498 30.9613C31.1749 31.2475 29.9372 31.489 28.6547 31.6769C29.0942 30.9882 29.5336 30.2816 29.9462 29.5571C30.3587 28.8416 30.7444 28.1171 31.1121 27.4015ZM22.0179 36.945C21.1839 36.0863 20.3498 35.1293 19.5247 34.0828C20.3318 34.1186 21.157 34.1454 21.991 34.1454C22.8341 34.1454 23.6682 34.1275 24.4843 34.0828C23.6771 35.1293 22.8431 36.0863 22.0179 36.945ZM15.3453 31.6769C14.0717 31.489 12.843 31.2565 11.6682 30.9703C12 29.8165 12.4126 28.6269 12.8789 27.4373C13.2466 28.1529 13.6323 28.8684 14.0538 29.5839C14.4753 30.2995 14.9058 30.9971 15.3453 31.6769ZM21.9731 13.0641C22.8072 13.9227 23.6413 14.8797 24.4664 15.9262C23.6592 15.8904 22.8341 15.8636 22 15.8636C21.157 15.8636 20.3229 15.8815 19.5067 15.9262C20.3139 14.8797 21.148 13.9227 21.9731 13.0641ZM15.3363 18.3322C14.8969 19.0209 14.4574 19.7275 14.0448 20.4519C13.6323 21.1675 13.2466 21.883 12.8789 22.5985C12.3946 21.4 11.9821 20.2015 11.6413 19.0388C12.8161 18.7615 14.0538 18.52 15.3363 18.3322ZM7.21973 29.5303C4.04484 28.1797 1.99103 26.4087 1.99103 25.0045C1.99103 23.6003 4.04484 21.8204 7.21973 20.4788C7.99103 20.1478 8.83408 19.8527 9.70404 19.5754C10.2152 21.3285 10.8879 23.1531 11.722 25.0224C10.8969 26.8828 10.2332 28.6984 9.73094 30.4426C8.84305 30.1653 8 29.8612 7.21973 29.5303ZM12.0448 42.3114C10.8251 41.6138 10.296 38.9574 10.7085 35.5407C10.8072 34.7 10.9686 33.8145 11.1659 32.9111C12.9238 33.3405 14.8431 33.6714 16.861 33.8861C18.0718 35.5407 19.3274 37.0433 20.5919 38.3581C17.6682 41.0682 14.9238 42.5529 13.0583 42.5529C12.6547 42.544 12.3139 42.4635 12.0448 42.3114ZM33.3184 35.496C33.7399 38.9127 33.2197 41.5691 32.009 42.2757C31.7399 42.4367 31.3901 42.5082 30.9776 42.5082C29.1211 42.5082 26.3677 41.0324 23.4439 38.3402C24.6996 37.0255 25.9552 35.5318 27.148 33.8771C29.1749 33.6625 31.0942 33.3315 32.852 32.8933C33.0583 33.7966 33.2197 34.6642 33.3184 35.496ZM36.7713 29.5303C36 29.8612 35.157 30.1563 34.287 30.4336C33.7758 28.6806 33.1031 26.856 32.2691 24.9866C33.0942 23.1262 33.7578 21.3106 34.2601 19.5665C35.148 19.8437 35.991 20.1478 36.7803 20.4788C39.9552 21.8293 42.009 23.6003 42.009 25.0045C42 26.4087 39.9462 28.1886 36.7713 29.5303Z" fill="#0F0F0F"/>
<path d="M21.991 29.0919C24.2547 29.0919 26.0897 27.2619 26.0897 25.0045C26.0897 22.747 24.2547 20.917 21.991 20.917C19.7274 20.917 17.8924 22.747 17.8924 25.0045C17.8924 27.2619 19.7274 29.0919 21.991 29.0919Z" fill="#0F0F0F"/>
</svg>
