<svg width="50" height="56" viewBox="0 0 50 56" fill="none" xmlns="http://www.w3.org/2000/svg">
<path fill-rule="evenodd" clip-rule="evenodd" d="M44.1589 10.8281L34.4626 28.1094L44.1589 45.3906L48.1308 43.3125V12.9062L44.1589 10.8281Z" fill="#404040"/>
<path fill-rule="evenodd" clip-rule="evenodd" d="M44.1589 10.8281L24.7664 12.9062L14.8949 28.1094L24.7664 43.3125L44.1589 45.3906V10.8281Z" fill="#333333"/>
<path fill-rule="evenodd" clip-rule="evenodd" d="M5.02336 10.8281L1.86916 12.1406V44.0781L5.02336 45.3906L24.7664 28.1094L5.02336 10.8281Z" fill="#0F0F0F"/>
<path fill-rule="evenodd" clip-rule="evenodd" d="M4.98096 10.7917L24.7925 15.9445V40.7361L4.98096 45.4028V10.7917Z" fill="#404040"/>
<path fill-rule="evenodd" clip-rule="evenodd" d="M24.8029 18.6667L16.3908 17.4027L24.8029 8.45825L33.1943 17.4027L24.8029 18.6667Z" fill="#0F0F0F"/>
<path fill-rule="evenodd" clip-rule="evenodd" d="M33.1943 17.4027L24.7925 18.686L16.3908 17.4027V8.45825" fill="#0F0F0F"/>
<path fill-rule="evenodd" clip-rule="evenodd" d="M24.8029 37.4305L16.3908 38.889L24.8029 46.5695L33.1943 38.889L24.8029 37.4305Z" fill="#0F0F0F"/>
<path fill-rule="evenodd" clip-rule="evenodd" d="M24.7663 1.75L16.3551 5.90625V17.3906L24.7925 15.1667L24.7663 1.75Z" fill="#333333"/>
<path fill-rule="evenodd" clip-rule="evenodd" d="M24.7925 21.4861L16.3908 22.3417V33.8084L24.7925 34.7083V21.4861Z" fill="#333333"/>
<path fill-rule="evenodd" clip-rule="evenodd" d="M24.7925 40.8333L16.3908 38.861V50.1335L24.7925 54.25V40.8333Z" fill="#333333"/>
<path fill-rule="evenodd" clip-rule="evenodd" d="M33.1943 38.861L24.7925 40.8339V54.25L33.1943 50.1335V38.861Z" fill="#404040"/>
<path fill-rule="evenodd" clip-rule="evenodd" d="M24.7925 21.4861L33.1943 22.3417V33.8084L24.7925 34.7083V21.4861Z" fill="#404040"/>
<path fill-rule="evenodd" clip-rule="evenodd" d="M24.7664 1.75L33.1776 5.90625V17.3906L24.7664 15.2031V1.75Z" fill="#404040"/>
</svg>
