<svg width="47" height="58" viewBox="0 0 47 58" fill="none" xmlns="http://www.w3.org/2000/svg">
<g clip-path="url(#clip0_141_17)">
<path fill-rule="evenodd" clip-rule="evenodd" d="M0 7.82568V49.4568C0 53.7796 10.3492 57.2839 23.1148 57.2839V7.82568H0Z" fill="#0F0F0F"/>
<path fill-rule="evenodd" clip-rule="evenodd" d="M22.7981 57.2832H23.1148C35.8803 57.2832 46.2295 53.7803 46.2295 49.4575V7.82642H22.7981V57.2839V57.2832Z" fill="#0F0F0F"/>
<path opacity="0.15" fill-rule="evenodd" clip-rule="evenodd" d="M22.7981 57.2832H23.1148C35.8803 57.2832 46.2295 53.7803 46.2295 49.4575V7.82642H22.7981V57.2839V57.2832Z" fill="white"/>
<path fill-rule="evenodd" clip-rule="evenodd" d="M46.2295 7.8257C46.2295 12.1478 35.8803 15.6514 23.1148 15.6514C10.3492 15.6514 0 12.1478 0 7.8257C0 3.50363 10.3492 0 23.1148 0C35.8803 0 46.2295 3.50363 46.2295 7.8257Z" fill="white"/>
<path fill-rule="evenodd" clip-rule="evenodd" d="M41.5033 7.37461C41.5033 10.2281 33.2706 12.538 23.1148 12.538C12.9589 12.538 4.72466 10.2281 4.72466 7.37461C4.72466 4.52116 12.9589 2.21118 23.1148 2.21118C33.2706 2.21118 41.5033 4.52259 41.5033 7.37461Z" fill="#212121"/>
<path fill-rule="evenodd" clip-rule="evenodd" d="M37.6516 10.531C40.0586 9.65813 41.5056 8.56544 41.5056 7.37751C41.5049 4.52405 33.2721 2.21265 23.1148 2.21265C12.9574 2.21265 4.7262 4.52405 4.7262 7.37751C4.7262 8.56472 6.17241 9.65813 8.5802 10.531C11.9419 9.31084 17.1958 8.52391 23.1155 8.52391C29.0352 8.52391 34.2877 9.31084 37.6516 10.531Z" fill="#2D2D2D"/>
<path fill-rule="evenodd" clip-rule="evenodd" d="M15.7735 36.724C15.7735 38.0179 15.2719 39.0196 14.2672 39.7292C13.2625 40.4388 11.8771 40.7947 10.1073 40.7947C8.60177 40.7947 7.34356 40.5412 6.33267 40.0336V36.9896C7.4992 37.9155 8.78438 38.3788 10.1882 38.3788C10.8662 38.3788 11.391 38.252 11.7608 37.9978C12.1306 37.7436 12.3155 37.4085 12.3155 36.9889C12.3155 36.5772 12.1376 36.2192 11.7816 35.9148C11.4256 35.6105 10.7014 35.2174 9.60958 34.7355C7.3844 33.7602 6.27258 32.427 6.27258 30.7421C6.27258 29.5191 6.75721 28.5381 7.72803 27.7991C8.69885 27.0602 9.98635 26.6914 11.5928 26.6914C13.0175 26.6914 14.1963 26.8668 15.134 27.2148V30.0583C14.1509 29.4239 13.0313 29.1074 11.777 29.1074C11.1467 29.1074 10.6482 29.2319 10.2822 29.4819C10.1082 29.5935 9.96694 29.7437 9.87115 29.9188C9.77536 30.094 9.72809 30.2886 9.73362 30.485C9.73362 30.9161 9.88079 31.2698 10.1767 31.5455C10.4725 31.8212 11.0766 32.162 11.9919 32.568C13.3557 33.1709 14.3265 33.7817 14.9075 34.4033C15.4884 35.0248 15.7735 35.7996 15.7735 36.724ZM31.4684 33.6435C31.4684 35.2475 31.0778 36.6402 30.2981 37.8181C29.5183 38.996 28.4196 39.8238 27.0027 40.2999L31.2334 43.9611H26.9618L23.9407 40.794C22.6455 40.7503 21.4767 40.4295 20.4358 39.8338C19.3948 39.238 18.5904 38.4217 18.0249 37.3849C17.4593 36.348 17.175 35.1923 17.175 33.9185C17.175 32.505 17.4817 31.2448 18.095 30.1385C18.7083 29.0322 19.5713 28.1808 20.6839 27.585C21.7964 26.9893 23.0701 26.6914 24.5093 26.6914C25.8508 26.6914 27.0535 26.98 28.1152 27.5571C29.177 28.1342 29.9999 28.9541 30.587 30.0196C31.1741 31.0851 31.4684 32.2938 31.4684 33.6435ZM28.0105 33.8154C28.0105 32.4327 27.6884 31.3414 27.0435 30.5387C26.3986 29.736 25.5179 29.3351 24.3984 29.3351C23.2588 29.3351 22.3473 29.7375 21.6616 30.5416C20.9759 31.3457 20.6345 32.4184 20.6345 33.7559C20.6345 35.0878 20.9697 36.1504 21.6408 36.9459C22.3119 37.7415 23.2034 38.1389 24.316 38.1389C25.4493 38.1389 26.347 37.7537 27.0119 36.9839C27.6768 36.2141 28.0105 35.1587 28.0105 33.8154ZM42.5674 40.5563H33.8801V26.9205H37.1654V38.0651H42.5666L42.5674 40.5563Z" fill="white"/>
</g>
<defs>
<clipPath id="clip0_141_17">
<rect width="47" height="58" fill="white"/>
</clipPath>
</defs>
</svg>
