<svg width="50" height="30" viewBox="0 0 50 30" fill="none" xmlns="http://www.w3.org/2000/svg">
<g clip-path="url(#clip0_141_45)">
<path d="M25.0002 0C18.336 0 14.171 3.3334 12.5048 9.99958C15.0041 6.66618 17.9197 5.41662 21.2515 6.24966C23.1527 6.72497 24.5115 8.10523 26.0158 9.63247C28.4657 12.1203 31.3013 14.9997 37.4956 14.9997C44.1592 14.9997 48.3247 11.6663 49.9903 4.99948C47.4916 8.33288 44.576 9.58306 41.2436 8.75003C39.343 8.27472 37.9843 6.89445 36.4799 5.36722C34.03 2.87936 31.1938 0 25.0002 0ZM12.5048 14.9997C5.84122 14.9997 1.67568 18.3331 0.0100861 24.9999C2.50878 21.6665 5.42435 20.4163 8.75678 21.25C10.6574 21.7259 12.0161 23.1055 13.5204 24.6322C15.9704 27.12 18.8066 30 25.0002 30C31.6644 30 35.8293 26.6666 37.4956 19.9998C34.9962 23.3332 32.0807 24.5834 28.7489 23.7497C26.8477 23.275 25.4889 21.8941 23.9846 20.3675C21.5346 17.8797 18.6991 14.9997 12.5048 14.9997Z" fill="#333333"/>
</g>
<defs>
<clipPath id="clip0_141_45">
<rect width="50" height="30" fill="white"/>
</clipPath>
</defs>
</svg>
