<svg width="50" height="50" viewBox="0 0 50 50" fill="none" xmlns="http://www.w3.org/2000/svg">
<g clip-path="url(#clip0_141_85)">
<path d="M0 25V0H50V50H0" fill="#333333"/>
<path d="M10.9625 25.0875V27.125H17.4625V45.625H22.075V27.125H28.575V25.125C28.575 24 28.575 23.0875 28.525 23.0625C28.525 23.025 24.5625 23.0125 19.75 23.0125L11 23.05V25.1L10.9625 25.0875ZM40.175 23C41.45 23.3 42.425 23.875 43.3 24.7875C43.7625 25.2875 44.45 26.1625 44.5 26.3875C44.5 26.4625 42.3375 27.925 41.025 28.7375C40.975 28.775 40.775 28.5625 40.575 28.2375C39.925 27.3125 39.2625 26.9125 38.225 26.8375C36.725 26.7375 35.725 27.525 35.725 28.8375C35.725 29.2375 35.8 29.4625 35.95 29.7875C36.2875 30.475 36.9125 30.8875 38.85 31.7375C42.425 33.275 43.975 34.2875 44.9125 35.7375C45.975 37.3625 46.2125 39.9125 45.5 41.825C44.7 43.9125 42.75 45.325 39.9625 45.7875C39.0875 45.9375 37.0875 45.9125 36.15 45.75C34.15 45.375 32.2375 44.375 31.0625 43.0875C30.6 42.5875 29.7125 41.25 29.7625 41.1625L30.2375 40.8625L32.1125 39.775L33.525 38.95L33.85 39.3875C34.2625 40.0375 35.1875 40.9125 35.725 41.2125C37.35 42.05 39.525 41.9375 40.6 40.9625C41.0625 40.5375 41.2625 40.0875 41.2625 39.4625C41.2625 38.8875 41.175 38.625 40.8875 38.1875C40.4875 37.6375 39.6875 37.1875 37.4375 36.1875C34.85 35.0875 33.75 34.3875 32.725 33.3125C32.1375 32.6625 31.6 31.65 31.35 30.8125C31.1625 30.0875 31.1 28.3125 31.275 27.6C31.8125 25.1 33.7 23.35 36.4 22.85C37.275 22.675 39.3375 22.75 40.2 22.975L40.175 23Z" fill="white"/>
</g>
<defs>
<clipPath id="clip0_141_85">
<rect width="50" height="50" fill="white"/>
</clipPath>
</defs>
</svg>
